<?xml version="1.0" encoding="iso-8859-1"?>
<!-- Generator: Adobe Illustrator 19.0.0, SVG Export Plug-In . SVG Version: 6.00 Build 0)  -->
<svg version="1.1" id="Capa_1" xmlns="http://www.w3.org/2000/svg" xmlns:xlink="http://www.w3.org/1999/xlink" x="0px" y="0px"
	 viewBox="0 0 512 512" style="enable-background:new 0 0 512 512;" xml:space="preserve">
<circle style="fill:#96E7F4;" cx="256" cy="256" r="256"/>
<path style="fill:#2DCEEA;" d="M512,256c0-7.088-0.301-14.105-0.866-21.047L384.5,108.319l-237.673,17.306l6.949,82.731
	l80.884,81.484l-1.667,10.002l-81.34,103.838l108.27,108.27C399.497,509.851,512,396.073,512,256z"/>
<polygon style="fill:#FFC46C;" points="282.027,317.149 238.761,317.149 256.068,265.23 273.374,265.23 "/>
<polygon style="fill:#FFD89D;" points="256.068,317.149 230.108,317.149 238.761,265.23 256.068,265.23 "/>
<path style="fill:#FF903D;" d="M325.87,343.108c0-23.857-19.409-43.266-43.266-43.266h-26.536l-23.075,51.919h92.877V343.108z"/>
<path style="fill:#FFB03B;" d="M229.531,299.843c-23.857,0-43.266,19.409-43.266,43.266v8.653h69.802v-51.919L229.531,299.843
	L229.531,299.843z"/>
<polygon style="fill:#BA1956;" points="360.482,334.455 256.068,334.455 221.455,369.068 256.068,403.681 360.482,403.681 "/>
<rect x="151.65" y="334.45" style="fill:#FF0F47;" width="104.42" height="69.22"/>
<path style="fill:#FFB03B;" d="M194.842,228.264c-15.458-1.775-30.043-8.844-41.066-19.907
	c-11.027-11.066-18.045-25.68-19.762-41.15L127.5,108.32h47.306l34.613,17.306h-62.592l4.388,39.674
	c2.641,23.791,21.819,43.041,45.6,45.771L194.842,228.264z"/>
<path style="fill:#FF903D;" d="M317.314,228.247l-2.012-17.189c23.72-2.777,42.848-22.022,45.484-45.761l4.388-39.671h-56.831
	l28.844-17.306H384.5l-6.513,58.884c-1.715,15.447-8.714,30.042-19.71,41.101C347.285,219.359,332.738,226.442,317.314,228.247z"/>
<path style="fill:#FFB03B;" d="M256.068,108.319l-28.844,87.109l28.844,87.109c35.328,0,64.903-26.446,68.797-61.528l12.322-112.689
	h-81.119V108.319z"/>
<path style="fill:#FFC46C;" d="M174.806,108.319l12.467,112.702c3.892,35.069,33.467,61.515,68.795,61.515V108.319H174.806z"/>
<g>
</g>
<g>
</g>
<g>
</g>
<g>
</g>
<g>
</g>
<g>
</g>
<g>
</g>
<g>
</g>
<g>
</g>
<g>
</g>
<g>
</g>
<g>
</g>
<g>
</g>
<g>
</g>
<g>
</g>
</svg>
